<svg width="641" height="822" viewBox="0 0 641 822" fill="none" xmlns="http://www.w3.org/2000/svg">
<path d="M11.0778 0H641V822H11.0778C8.13979 822 5.32211 820.628 3.24462 818.186C1.16712 815.744 0 812.431 0 808.978L0 13.0223C0 9.56857 1.16712 6.2563 3.24462 3.81414C5.32211 1.37199 8.13979 0 11.0778 0Z" fill="url(#paint0_linear_36_4526)"/>
<path d="M467.691 450.055C471.236 447.525 474.951 445.242 478.809 443.223C498.841 432.929 517.594 422.364 533.235 406.148C551.765 386.943 564.756 361.006 564.756 333.79C564.756 306.574 550.118 278.674 526.009 267.387C496.005 253.339 461.681 266.696 429.033 270.064C386.948 274.406 345.105 261.592 303.574 252.744C262.042 243.896 216.909 239.398 179.188 258.874C148.819 274.555 126.457 305.596 120.61 340.173C114.763 374.75 125.576 412.051 148.931 437.873C182.626 475.126 235.628 485.16 284.772 487.536C320.984 489.286 357.279 488.028 393.282 483.773C409.504 481.851 424.688 478.569 439.003 470.48C449.333 464.677 458.116 456.777 467.691 450.055Z" stroke="#F4EBD7" stroke-width="2.6" stroke-miterlimit="10"/>
<path d="M244.676 484.205C219.378 481.231 193.923 475.101 171.568 461.703C149.213 448.305 130.133 426.918 122.688 400.735C115.243 374.553 121.112 343.764 140.289 326.292C164.134 304.577 199.465 308.031 230.518 302.336C270.547 294.997 305.659 271.231 341.566 251.365C377.474 231.498 417.901 214.821 458.038 223.231C490.355 230 519.486 253.714 534.336 285.376C549.186 317.039 549.412 355.846 534.919 387.062C514.011 432.1 467.84 456.245 423.135 471.974C390.223 483.556 356.373 492.278 321.962 498.041C309.324 500.153 296.441 501.863 283.721 499.863C271.001 497.863 258.292 491.714 250.419 480.707L244.676 484.205Z" fill="#F4EBD7"/>
<path d="M35 534.666H605.405" stroke="#102048" stroke-width="5" stroke-miterlimit="10"/>
<path opacity="0.15" d="M118.406 566.273C133.376 566.273 145.511 563.963 145.511 561.113C145.511 558.263 133.376 555.953 118.406 555.953C103.436 555.953 91.3008 558.263 91.3008 561.113C91.3008 563.963 103.436 566.273 118.406 566.273Z" fill="#1F3C88"/>
<path d="M105.969 551.068C100.107 551.068 93.5762 542.48 93.5762 536.662C93.5762 530.748 98.2932 525.934 104.088 525.934C109.883 525.934 114.6 530.766 114.6 536.662C114.6 542.231 112.258 551.068 105.969 551.068ZM104.088 529.506C100.26 529.506 97.1446 532.718 97.1446 536.666C97.1446 541.019 102.423 547.503 105.969 547.503C109.229 547.503 111.032 541.094 111.032 536.666C111.032 532.714 107.917 529.502 104.088 529.502V529.506Z" fill="#1F3C88"/>
<path d="M126.246 560.347H110.816C109.58 560.347 108.388 559.883 107.479 559.045C106.569 558.208 106.008 557.059 105.906 555.826L102.713 517.372H134.989L131.149 555.908C131.027 557.124 130.458 558.252 129.552 559.072C128.646 559.892 127.468 560.346 126.246 560.347Z" fill="#1F3C88"/>
<path d="M106.455 471.238C105.373 474.858 104.89 478.587 105.503 482.171C105.808 483.958 106.319 485.705 107.024 487.375C107.762 489.046 108.651 490.646 109.678 492.156C110.732 493.678 111.888 495.126 113.138 496.491C113.443 496.818 113.77 497.234 114.101 497.606C114.432 497.978 114.767 498.383 115.071 498.803L115.926 500.119C116.196 500.579 116.433 501.057 116.636 501.55C116.858 502.043 117.033 502.556 117.157 503.082C117.307 503.612 117.399 504.157 117.432 504.706C117.463 504.982 117.463 505.26 117.432 505.535L117.372 506.368C117.335 506.64 117.257 506.911 117.201 507.179C117.15 507.45 117.071 507.715 116.967 507.97L116.655 508.714C116.528 508.956 116.387 509.186 116.253 509.417C116.125 509.65 115.975 509.871 115.807 510.078C115.658 510.296 115.491 510.501 115.309 510.692C114.618 511.476 113.798 512.137 112.886 512.647L112.291 511.703C113.611 510.539 114.692 508.978 115.06 507.368C115.121 507.17 115.159 506.965 115.172 506.758C115.172 506.554 115.231 506.357 115.242 506.153L115.213 505.539C115.22 505.335 115.196 505.13 115.142 504.933C115.085 504.526 114.984 504.126 114.841 503.74C114.715 503.339 114.549 502.952 114.347 502.584C114.152 502.2 113.936 501.828 113.7 501.468L112.934 500.398C112.659 500.052 112.336 499.729 112.042 499.394L111.094 498.361C110.418 497.617 109.741 496.907 109.12 496.13C108.499 495.353 107.894 494.55 107.317 493.732C106.189 492.053 105.24 490.26 104.485 488.383C103.75 486.48 103.276 484.487 103.076 482.457C102.725 478.428 103.535 474.382 105.411 470.799L106.455 471.238Z" fill="#D3DFFF"/>
<path d="M120.472 470.138C122.559 471.827 124.087 474.108 124.855 476.681C125.236 477.989 125.432 479.344 125.438 480.707C125.427 482.051 125.27 483.389 124.97 484.699C124.66 485.982 124.244 487.237 123.725 488.45L123.387 489.279C123.286 489.536 123.164 489.796 123.078 490.056L122.862 490.833C122.781 491.093 122.773 491.343 122.718 491.599C122.677 491.845 122.66 492.094 122.669 492.343C122.663 492.584 122.683 492.826 122.729 493.064C122.767 493.3 122.824 493.532 122.9 493.759C122.993 493.983 123.103 494.199 123.23 494.406C123.829 495.298 124.677 495.995 125.669 496.409L125.45 497.506C124.002 497.367 122.655 496.706 121.658 495.647C121.407 495.36 121.18 495.051 120.982 494.725C120.794 494.387 120.639 494.033 120.517 493.666C120.397 493.304 120.316 492.93 120.275 492.551C120.222 492.182 120.203 491.808 120.22 491.435C120.222 491.072 120.25 490.709 120.305 490.35L120.521 489.309C120.606 488.971 120.725 488.655 120.829 488.324C120.933 487.993 121.045 487.658 121.145 487.402C121.57 486.311 121.924 485.193 122.205 484.056C122.47 482.938 122.639 481.798 122.71 480.651C122.76 479.519 122.686 478.384 122.491 477.268C122.097 475.037 121.045 472.911 119.662 470.907L120.472 470.138Z" fill="#D3DFFF"/>
<path opacity="0.15" d="M530.154 568.794C560.093 568.794 584.364 565.2 584.364 560.767C584.364 556.335 560.093 552.741 530.154 552.741C500.214 552.741 475.943 556.335 475.943 560.767C475.943 565.2 500.214 568.794 530.154 568.794Z" fill="#1F3C88"/>
<path d="M533.607 430.044H525.998V504.473H533.607V430.044Z" fill="#27481F"/>
<path d="M531.7 425.04C531.621 429.342 531.281 433.635 530.681 437.895C530.358 440.152 530.09 441.449 530.09 441.449C509.319 434.706 499.789 421.832 495.822 408.839C495.451 407.657 495.138 406.464 494.867 405.281C490.67 387.203 496.294 369.965 496.294 369.965C505.814 371.954 512.854 376.106 518.028 381.448C518.917 382.363 519.746 383.307 520.523 384.281C530.094 396.3 531.93 412.843 531.7 425.04Z" fill="#49883A"/>
<path d="M558.615 389.058C558.203 403.512 552.583 420.349 535.149 436.512C533.814 437.752 532.404 438.991 530.919 440.23C530.763 440.364 530.607 440.494 530.447 440.602C528.177 437.068 526.215 433.346 524.585 429.475C524.541 429.375 524.5 429.282 524.463 429.181C523.312 426.5 522.306 423.759 521.448 420.969C520.644 418.389 519.977 415.768 519.448 413.118C517.352 402.479 517.344 389.869 523.143 377.385C527.496 367.98 535.142 358.656 547.654 350.288C547.665 350.307 559.27 366.887 558.615 389.058Z" fill="#49883A"/>
<path opacity="0.5" d="M535.161 436.512C533.825 437.752 532.415 438.991 530.931 440.23C530.774 440.364 530.618 440.494 530.458 440.602C528.188 437.069 526.227 433.346 524.597 429.475L524.474 429.182C524.225 428.594 523.972 427.984 523.73 427.36L523.448 426.616C523.284 426.196 523.121 425.78 522.957 425.349C522.831 425.007 522.708 424.65 522.586 424.3C522.463 423.951 522.322 423.557 522.195 423.185C521.948 422.457 521.706 421.713 521.471 420.955C520.667 418.374 519.999 415.754 519.471 413.103C517.761 404.427 517.437 394.434 520.534 384.266C519.757 383.289 518.928 382.348 518.04 381.434C516.04 386.712 512.791 398.809 512.404 409.717C507.602 407.835 501.829 406.293 494.878 405.256C495.15 406.438 495.462 407.631 495.834 408.813C492.86 408.107 489.671 407.486 486.21 406.954C488.942 416.271 499.9 445.948 528.488 446.39C529.232 446.39 529.949 446.39 530.7 446.368C531.875 446.334 533.083 446.241 534.324 446.096C535.158 442.975 535.441 439.731 535.161 436.512Z" fill="#27481F"/>
<path d="M530.868 444.859C530.871 444.882 530.871 444.906 530.868 444.929C530.868 445.108 530.838 445.279 530.816 445.442C530.816 445.524 530.797 445.602 530.79 445.68C530.782 445.758 530.76 445.944 530.738 446.052C530.689 446.446 530.63 446.796 530.574 447.167C530.541 447.394 530.496 447.617 530.455 447.829C530.262 448.867 529.992 449.89 529.649 450.889C527.703 451.019 525.751 451.019 523.805 450.889C489.98 448.621 483.014 406.546 483.014 406.546C484.102 406.682 485.166 406.832 486.207 406.996C489.667 407.509 492.871 408.13 495.83 408.854C508.063 411.765 516.159 416.152 521.478 421.003C522.97 422.358 524.329 423.852 525.537 425.464C528.272 429.112 530.047 433.388 530.7 437.9C530.819 438.698 530.902 439.476 530.95 440.234C531.042 441.775 531.014 443.322 530.868 444.859Z" fill="#49883A"/>
<path opacity="0.38" d="M558.615 389.059C558.392 397.035 556.57 404.885 553.259 412.144C549.628 420.182 543.866 428.431 535.149 436.513L535.042 436.606C534.529 437.082 534.001 437.56 533.458 438.041L532.982 438.468C532.31 439.052 531.626 439.643 530.919 440.23C530.87 439.472 530.787 438.694 530.67 437.896C530.017 433.384 528.242 429.108 525.507 425.461C524.299 423.848 522.94 422.354 521.448 421C520.644 418.419 519.977 415.799 519.448 413.148C521.258 414.191 522.978 415.381 524.593 416.706C525.603 417.535 526.56 418.426 527.459 419.375C531.93 407.706 540.911 395.758 558.615 389.059Z" fill="#27481F"/>
<path opacity="0.2" d="M530.867 444.859C530.871 444.882 530.871 444.906 530.867 444.929C530.867 445.108 530.838 445.279 530.815 445.442C530.815 445.524 530.797 445.602 530.789 445.68C530.782 445.758 530.76 445.944 530.737 446.052C530.689 446.446 530.63 446.796 530.574 447.167C530.533 447.394 530.496 447.617 530.455 447.829C530.262 448.867 529.992 449.89 529.648 450.889C527.703 451.019 525.751 451.019 523.805 450.889C522.967 443.757 523.237 436.539 524.604 429.491C524.861 428.171 525.169 426.821 525.526 425.457C528.26 429.105 530.036 433.38 530.689 437.892C530.808 438.69 530.891 439.468 530.938 440.227C531.034 441.77 531.011 443.319 530.867 444.859Z" fill="#27481F"/>
<path d="M563.448 494.959L555.077 549.715C554.625 552.67 553.129 555.365 550.861 557.313C548.593 559.261 545.703 560.332 542.714 560.332H517.594C514.605 560.328 511.717 559.256 509.45 557.309C507.183 555.362 505.686 552.668 505.23 549.715L496.863 494.944L563.448 494.959Z" fill="#FBC343"/>
<path d="M528.763 450.966C528.763 450.966 519.586 396.594 577.896 388.746C577.896 388.746 581.554 448.338 528.763 450.966Z" fill="#49883A"/>
<path opacity="0.4" d="M563.448 494.959L555.077 549.715C554.625 552.67 553.13 555.365 550.862 557.313C548.594 559.261 545.703 560.332 542.714 560.332H517.594C514.961 560.333 512.396 559.502 510.263 557.959C508.131 556.416 506.54 554.238 505.718 551.737C538.335 546.506 547.078 512.922 548.836 494.944L563.448 494.959Z" fill="#C89B35"/>
<path opacity="0.15" d="M442.222 561.429C442.222 554.738 382.629 549.317 309.116 549.317C235.602 549.317 176.01 554.738 176.01 561.429C176.01 566.857 215.214 571.466 269.253 572.991C275.138 582.656 265.317 594.18 257.786 598.359C244.568 599.021 235.078 600.493 236.573 603.63C243.635 618.467 303.681 602.679 303.681 602.679C303.681 602.679 327.162 604.14 327.162 601.906C327.162 600.879 323.025 599.939 316.227 599.225L316.728 599.195L291.381 573.437C297.183 573.509 303.094 573.544 309.116 573.544C382.629 573.544 442.222 568.121 442.222 561.429Z" fill="#1F3C88"/>
<path d="M453.979 472.446C452.225 501.402 437.624 530.335 413.708 546.257C385.191 565.239 345.314 561.038 312.841 563.458C284.766 565.548 256.478 567.343 228.396 564.354C205.383 561.901 182.173 552.785 171.182 530.443C160.19 508.101 158.979 478.293 169.992 455.631C173.486 448.501 178.126 441.991 183.727 436.363C184.627 435.441 185.563 434.542 186.511 433.664C187.154 433.073 187.801 432.49 188.466 431.917C189.477 431.04 190.518 430.185 191.574 429.348C191.923 429.077 192.273 428.806 192.629 428.538C192.986 428.27 193.336 428.003 193.693 427.739C194.049 427.475 194.406 427.211 194.771 426.954L195.585 426.374C196.034 426.055 196.488 425.739 196.953 425.434C201.051 422.673 205.359 420.236 209.836 418.144C214.142 416.111 218.585 414.382 223.132 412.969C237.904 408.382 253.33 406.757 268.574 404.753C300.913 400.508 333.854 399.058 366.46 399.08C393.067 399.08 423.023 403.069 440.802 425.91C450.857 438.81 454.987 455.951 453.979 472.446Z" fill="#EE6F57"/>
<path d="M399.208 423.538C399.208 423.538 406.07 417.092 409.709 413.36C413.348 409.627 405.408 409.508 401.498 414.159C397.587 418.809 399.208 423.538 399.208 423.538Z" fill="#F9B384"/>
<path d="M209.836 418.145C205.359 420.237 201.051 422.674 196.952 425.435C196.487 425.739 196.034 426.055 195.584 426.375L194.77 426.955C194.398 427.212 194.049 427.476 193.692 427.739C193.335 428.003 192.978 428.267 192.629 428.539C192.28 428.81 191.923 429.078 191.573 429.349C190.533 430.178 189.514 431.026 188.507 431.896L188.466 431.918C187.801 432.49 187.154 433.074 186.511 433.665C185.563 434.543 184.626 435.442 183.727 436.364C183.752 436.75 183.9 437.118 184.148 437.414C184.397 437.71 184.734 437.919 185.109 438.011C190.462 439.097 193.142 444.204 197.458 447.108C198.983 448.176 200.739 448.87 202.583 449.133C204.427 449.395 206.307 449.22 208.07 448.621C204.167 456.881 202.015 465.078 203.699 474.328C204.213 477.126 205.088 479.846 206.301 482.421C201.286 478.703 196.458 470.718 194.473 462.628C194.415 462.346 194.301 462.078 194.138 461.84C193.974 461.603 193.764 461.401 193.521 461.246C193.277 461.092 193.005 460.988 192.721 460.942C192.436 460.895 192.145 460.907 191.865 460.975C191.585 461.044 191.322 461.168 191.091 461.341C190.86 461.514 190.667 461.732 190.522 461.981C190.377 462.231 190.285 462.507 190.25 462.793C190.214 463.08 190.237 463.37 190.317 463.647C192.774 473.684 199.034 483.287 205.539 487.068C206.983 487.919 208.568 488.504 210.218 488.796C211.504 490.45 212.945 491.976 214.523 493.354L224.139 496.045L231.986 445.394L209.836 418.145Z" fill="#B35341"/>
<path d="M237.703 452.156C217.824 444.412 204.022 436.17 196.008 430.695C193.466 428.95 191.479 426.513 190.282 423.672C189.084 420.831 188.728 417.706 189.254 414.668L199.502 354.916C200.016 351.886 201.28 349.032 203.178 346.615C205.076 344.198 207.549 342.294 210.371 341.076C225.252 334.678 240.92 330.292 256.961 328.035C262.966 327.677 268.989 327.802 274.974 328.407C281.617 329.065 296.823 333.544 306.491 336.548C309.186 337.384 311.658 338.819 313.72 340.744C315.783 342.67 317.385 345.036 318.405 347.667C322.46 358.117 329.043 375.764 331.143 385.3C338.395 418.233 337.206 415.784 337.206 415.784L344.696 466.442L265.15 470.903L244.836 461.61L237.703 452.156Z" fill="#708CD5"/>
<path d="M286.921 271.138C286.921 271.138 279.858 256.692 261.154 263.291C247.601 260.35 237.257 276.399 247.244 298.235L266.057 302.604L286.921 271.138Z" fill="#102048"/>
<path d="M276.933 311.979V337.534C276.932 340.405 275.791 343.159 273.76 345.189C271.73 347.219 268.976 348.359 266.105 348.359C264.178 348.359 262.271 347.98 260.491 347.242C258.71 346.505 257.093 345.424 255.731 344.062C254.368 342.699 253.288 341.082 252.55 339.301C251.813 337.521 251.434 335.613 251.434 333.686V311.979H276.933Z" fill="#F9B384"/>
<path d="M276.934 322.574V336.515C265.57 336.57 258.032 321.875 258.032 321.875L276.934 322.574Z" fill="#E28B6D"/>
<path d="M288.178 308.759C287.535 312.312 286.505 315.784 285.108 319.113C282.654 324.711 278.911 328.979 273.19 329.098C259.809 329.384 249.472 311.087 249.472 311.087L251.613 286.12L261.779 274.703L289.773 292.005C289.739 297.626 289.206 303.233 288.178 308.759Z" fill="#F9B384"/>
<path d="M251.167 303.774C251.167 303.774 253.932 292.54 263.559 285.227C263.559 285.227 277.558 303.506 292.36 294.677C307.161 285.848 300.742 268.461 286.921 271.138L271.049 269.354L251.167 275.673L247.78 291.287L251.167 303.774Z" fill="#102048"/>
<path opacity="0.4" d="M265.217 433.267C251.731 404.122 234.736 418.025 230.569 407.334C224.741 392.341 225.845 375.363 225.815 370.236L217.693 415.984C217.693 415.984 235.829 417.705 242.531 428.624L265.217 433.267Z" fill="#1F3C88"/>
<path d="M226.228 369.456C225.723 373.37 225.113 377.262 224.511 381.162C223.909 385.062 223.206 388.939 222.56 392.828C221.913 396.716 221.173 400.586 220.411 404.456L219.251 410.256C218.828 412.181 218.437 414.114 217.988 416.036L217.396 415.932C217.634 413.969 217.928 412.021 218.196 410.066L219.092 404.222C219.704 400.326 220.361 396.439 221.065 392.56C221.809 388.686 222.463 384.802 223.236 380.935C224.009 377.069 224.771 373.203 225.637 369.352L226.228 369.456Z" fill="#1F3C88"/>
<path d="M305.027 362.222C306.105 367.304 307.101 372.404 308.079 377.504C309.056 382.605 309.967 387.716 310.918 392.824C311.87 397.932 312.706 403.055 313.569 408.174L314.814 415.866C315.186 418.434 315.609 421 315.963 423.572L315.416 423.672C314.859 421.133 314.361 418.583 313.833 416.04L312.346 408.393C311.382 403.29 310.443 398.183 309.528 393.07C308.655 387.951 307.729 382.843 306.897 377.716C306.064 372.59 305.224 367.463 304.48 362.322L305.027 362.222Z" fill="#1F3C88"/>
<path opacity="0.4" d="M308.796 385.812C309.744 395.088 308.321 443.118 285.97 443.832L286.208 454.297L321.398 452.156L308.796 385.812Z" fill="#1F3C88"/>
<path d="M262.846 442.527C278.718 435.75 281.751 435.999 283.888 436.107C291.2 436.46 301.73 451.085 301.73 451.085L301.552 453.762H261.422L262.846 442.527Z" fill="#E28B6D"/>
<path d="M323.896 451.145H274.499V458.635H323.896V451.145Z" fill="white"/>
<path d="M391.063 458.643H305.231L324.49 381.932H410.322L391.063 458.643Z" fill="#FBC343"/>
<path d="M398.84 427.267C390.35 425.999 362.888 420.293 306.284 454.777L304.976 459.531L391.045 458.647L398.84 427.267Z" fill="#C89B35"/>
<path d="M400.468 444.308C399.933 447.922 399.754 453.23 388.573 452.558L385.272 450.862L388.395 447.431L395.127 443.996L400.468 444.308Z" fill="#F9B384"/>
<path d="M401.523 434.561C401.523 434.561 407.645 442.561 401.493 445.022C397.316 446.648 392.869 447.465 388.387 447.431C391.238 439.404 400.512 439.94 400.512 439.94L401.523 434.561Z" fill="#F9B384"/>
<path d="M401.702 429.39C401.702 429.39 410.143 437.234 402.296 439.427C391.216 442.535 387.8 442.773 387.8 442.773C387.205 436.884 398.208 433.081 398.208 433.081L401.702 429.39Z" fill="#F9B384"/>
<path d="M399.977 422.553C399.977 422.553 411.5 429.564 400.691 433.49C389.881 437.415 387.309 437.352 387.309 437.352C386.715 431.467 398.304 429.449 398.304 429.449L399.977 422.553Z" fill="#F9B384"/>
<path d="M387.316 437.352C387.316 437.352 399.888 435.572 403.635 432.52" stroke="#E28B6D" stroke-width="2.5" stroke-miterlimit="10"/>
<path d="M387.792 442.765C387.792 442.765 400.869 440.907 404.969 438.066" stroke="#E28B6D" stroke-width="2.5" stroke-miterlimit="10"/>
<path d="M388.372 447.431C388.372 447.431 396.13 447.699 400.497 445.572" stroke="#E28B6D" stroke-width="2.5" stroke-miterlimit="10"/>
<path d="M266.593 559.875C267.901 559.161 288.587 563.682 311.529 546.678L281.93 538.235L266.593 559.875Z" fill="#102048"/>
<path d="M398.036 461.68C399.021 460.275 399.869 458.204 398.627 457.022C397.338 455.78 395.226 456.873 393.873 458.04C391.505 460.087 389.31 462.325 387.309 464.732L337.336 474.026L268.859 490.665L280.631 505.695C314.87 508.193 334.37 508.837 355.799 505.052C366.72 503.126 376.481 501.138 383.763 495.204C385.499 493.784 387.138 491.401 386.011 489.468C385.249 488.163 383.666 487.821 382.075 487.836C385.731 486.974 389.281 485.709 392.658 484.063C394.145 483.32 395.84 482.204 395.806 480.524C395.784 479.323 394.814 478.293 393.699 477.884C392.583 477.476 391.36 477.49 390.171 477.576C385.592 477.925 381.086 478.926 376.789 480.55C384.599 475.093 392.539 469.449 398.036 461.68ZM376.696 480.613C376.696 480.613 376.696 480.591 376.696 480.576L376.771 480.55C376.742 480.569 376.715 480.59 376.689 480.613H376.696Z" fill="#B35341"/>
<path d="M283.353 468.208C283.353 468.208 350.045 436.46 371.82 437.888C393.595 439.315 392.833 466.442 384.655 478.193C376.477 489.944 357.193 505.658 286.222 501.022L283.353 468.208Z" fill="#102048"/>
<path d="M316.729 599.195C313.119 600.217 307.997 600.467 300.949 599.348C300.949 599.348 291.82 601.716 282.832 603.578C276.747 604.838 270.737 605.868 267.663 605.768C267.399 605.768 267.135 605.745 266.864 605.723C260.964 605.303 253.53 602.229 249.586 597.835C249.581 597.819 249.57 597.806 249.557 597.797C248.51 596.67 247.711 595.337 247.211 593.883C245.07 587.221 249.594 579.135 274.082 580.797C274.082 580.797 282.163 578.901 284.066 572.953C285.969 567.005 271.941 538.473 271.941 538.473L291.913 524.919L311.528 546.678C311.528 546.678 314.502 566.295 314.502 572.7C314.502 572.7 322.821 584.596 324.01 589.823C324.776 593.176 323.107 597.392 316.729 599.195Z" fill="#D3DFFF"/>
<path d="M204.435 418.524C206.721 417.642 209.051 416.932 211.408 416.293C212.59 415.97 213.776 415.668 214.984 415.431C215.59 415.312 216.199 415.204 216.816 415.122C217.129 415.077 217.437 415.048 217.76 415.022C218.093 414.995 218.428 414.995 218.76 415.022C221.321 415.289 223.645 416.096 225.953 416.947C228.261 417.799 230.495 418.806 232.703 419.862C234.911 420.918 237.067 422.092 239.186 423.297C241.305 424.501 243.386 425.806 245.412 427.182C249.434 429.959 253.307 433.007 256.638 436.602L256.214 437.026C254.422 435.405 252.556 433.874 250.616 432.435C248.69 430.981 246.694 429.613 244.669 428.323C240.608 425.706 236.397 423.331 232.056 421.211C229.893 420.141 227.693 419.152 225.455 418.271C223.217 417.39 220.931 416.538 218.656 416.23C218.384 416.194 218.109 416.178 217.835 416.182C217.552 416.182 217.259 416.219 216.965 416.248C216.378 416.315 215.787 416.397 215.196 416.501C214.017 416.706 212.832 416.947 211.653 417.211C209.3 417.747 206.951 418.371 204.646 419.07L204.435 418.524Z" fill="#1F3C88"/>
<path d="M216.304 511.901C224.329 511.365 232.217 511.942 237.941 509.942C244.063 507.8 260.054 509.228 260.054 509.228L251.256 496.555L215.59 505.477L216.304 511.901Z" fill="#B35341"/>
<path d="M216.66 488.539C208.457 475.342 208.457 449.305 218.801 437.531C230.622 424.081 255.891 418.984 269.086 434.68C282.282 450.375 306.536 507.8 311.528 546.678C311.528 546.678 284.765 537.756 266.592 559.875C266.592 559.875 242.695 505.302 237.703 485.327L224.15 496.03L216.66 488.539Z" fill="#1F3C88"/>
<path d="M237.703 485.328C237.703 485.328 234.138 484.019 229.154 487.35C229.154 487.35 190.161 486.517 181.482 495.317C172.802 504.116 179.463 515.886 192.183 517.194C202.859 518.309 223.585 510.008 229.968 507.317C231.267 506.769 232.649 506.442 234.056 506.35L244.617 505.659L237.703 485.328Z" fill="#D3DFFF"/>
<path d="M253.274 304.503C253.274 304.503 250.672 295.834 244.907 298.001C239.142 300.168 242.216 311.451 253.575 314.589L253.274 304.503Z" fill="#F9B384"/>
<path d="M247.148 352.315C249.955 354.337 253.004 355.999 256.225 357.263C259.429 358.463 262.815 359.225 266.209 359.144C269.607 359.1 272.949 358.27 275.974 356.72L277.115 356.14C277.487 355.935 277.829 355.679 278.189 355.448C278.92 355.006 279.616 354.509 280.271 353.961L281.271 353.151L281.776 352.742C281.936 352.601 282.081 352.441 282.237 352.292C282.847 351.678 283.466 351.07 284.096 350.471L284.523 350.842C283.958 351.523 283.389 352.199 282.806 352.869C282.661 353.032 282.523 353.211 282.367 353.367L281.884 353.824L280.914 354.742C280.261 355.35 279.563 355.907 278.825 356.408C278.453 356.664 278.115 356.95 277.732 357.188L276.565 357.854C273.406 359.626 269.849 360.569 266.228 360.594C262.631 360.585 259.074 359.843 255.775 358.411C252.513 357.01 249.487 355.113 246.806 352.787L247.148 352.315Z" fill="#1F3C88"/>
<path d="M231.793 462.554L234.882 473.368C235.934 476.967 236.919 480.584 238.015 484.149C239.112 487.714 240.164 491.324 241.29 494.892C241.855 496.673 242.405 498.461 243.029 500.227C243.331 501.112 243.606 502.008 243.925 502.889C244.245 503.77 244.553 504.647 244.855 505.536L244.342 505.751C243.546 504.046 242.797 502.319 242.093 500.569C241.394 498.822 240.755 497.052 240.108 495.287C238.84 491.744 237.722 488.153 236.658 484.547C235.595 480.941 234.614 477.316 233.718 473.665C232.822 470.015 231.964 466.36 231.25 462.669L231.793 462.554Z" fill="#102048"/>
<path opacity="0.1" d="M316.728 599.195C313.119 600.217 307.997 600.466 300.949 599.347C300.949 599.347 285.85 603.214 276.309 604.73C286.118 602.768 300.384 590.641 298.779 582.972C312.866 587.607 316.699 594.652 316.728 599.195Z" fill="#1F3C88"/>
<path opacity="0.4" d="M278.803 600.537C276.985 602.768 274.275 604.296 271.428 605.062C269.937 605.456 268.405 605.678 266.864 605.723C260.964 605.303 253.53 602.229 249.586 597.835C249.581 597.82 249.57 597.806 249.557 597.798C249.135 597.232 248.75 596.639 248.404 596.024C250.441 597.938 252.745 599.544 255.244 600.794C256.466 601.403 257.732 601.919 259.032 602.337C259.667 602.578 260.329 602.709 260.987 602.906C261.643 603.079 262.31 603.213 262.983 603.307C268.309 604.207 273.967 603.649 278.803 600.537Z" fill="#1F3C88"/>
<path d="M250.691 305.733C250.531 304.954 250.215 304.216 249.762 303.562C249.342 302.908 248.81 302.334 248.189 301.867C247.58 301.439 246.922 301.228 246.364 301.529C245.807 301.83 245.32 302.529 244.915 303.25L244.521 303.112C244.691 302.265 245.004 301.335 245.888 300.718C246.346 300.417 246.902 300.302 247.442 300.399C247.937 300.493 248.403 300.699 248.806 301.001C249.545 301.556 250.143 302.277 250.553 303.105C250.999 303.908 251.192 304.826 251.107 305.741L250.691 305.733Z" fill="#E28B6D"/>
<path d="M284.628 305.514C284.379 306.745 283.45 307.596 282.558 307.414C281.666 307.232 281.145 306.087 281.398 304.856C281.651 303.626 282.572 302.778 283.468 302.96C284.364 303.142 284.881 304.284 284.628 305.514Z" fill="#102048"/>
<path d="M270.713 304.969C270.915 303.729 270.349 302.605 269.45 302.458C268.55 302.312 267.657 303.198 267.455 304.438C267.253 305.678 267.818 306.803 268.718 306.949C269.617 307.096 270.511 306.21 270.713 304.969Z" fill="#102048"/>
<path d="M276.628 306.652C276.714 307.663 276.755 308.671 276.766 309.656C276.821 310.054 277.008 310.422 277.297 310.701C277.67 311.074 278.016 311.473 278.334 311.894C278.512 312.155 278.638 312.448 278.706 312.756C278.772 313.055 278.792 313.362 278.766 313.667C278.722 314.274 278.494 314.852 278.111 315.325C277.906 315.569 277.653 315.769 277.368 315.913C277.082 316.042 276.771 316.106 276.457 316.102C275.891 316.068 275.346 315.87 274.889 315.533L275.086 315.162C275.507 315.332 275.964 315.397 276.416 315.351C276.608 315.326 276.791 315.259 276.954 315.155C277.116 315.051 277.254 314.912 277.357 314.749C277.578 314.413 277.702 314.023 277.716 313.621C277.73 313.219 277.632 312.821 277.435 312.47C277.216 312.121 276.851 311.79 276.506 311.355C276.091 310.893 275.857 310.296 275.848 309.675C275.922 308.637 276.048 307.622 276.219 306.611L276.628 306.652Z" fill="#E28B6D"/>
<path d="M265.132 300.677C265.71 300.1 266.389 299.634 267.135 299.302C267.913 298.947 268.765 298.783 269.618 298.826C270.487 298.883 271.32 299.189 272.02 299.707C272.681 300.204 273.228 300.838 273.622 301.566L273.291 301.822C272.742 301.324 272.146 300.881 271.51 300.499C270.909 300.151 270.237 299.943 269.544 299.889C268.158 299.785 266.753 300.335 265.377 301.004L265.132 300.677Z" fill="#102048"/>
<path d="M279.644 301.897C279.921 301.143 280.482 300.528 281.208 300.184C281.913 299.829 282.695 299.654 283.483 299.674C284.267 299.69 285.034 299.904 285.714 300.295C286.399 300.68 286.94 301.278 287.256 301.998L286.907 302.225C285.987 301.297 284.741 300.763 283.435 300.738C282.175 300.708 280.833 301.057 280 302.08L279.644 301.897Z" fill="#102048"/>
<path d="M269.908 318.648L279.368 319.325C279.368 319.325 274.09 326.325 269.908 318.648Z" fill="white"/>
<path opacity="0.4" d="M288.178 308.76C287.535 312.313 286.505 315.784 285.108 319.113C283.982 318.583 283.071 317.685 282.525 316.568C281.979 315.45 281.831 314.179 282.105 312.966C282.379 311.752 283.058 310.668 284.031 309.894C285.005 309.119 286.213 308.699 287.457 308.704C287.698 308.706 287.939 308.725 288.178 308.76Z" fill="#EE6F57"/>
<path opacity="0.4" d="M266.213 317.975C268.997 316.806 270.307 313.601 269.137 310.816C267.968 308.031 264.763 306.722 261.979 307.891C259.195 309.061 257.885 312.266 259.055 315.051C260.224 317.835 263.429 319.145 266.213 317.975Z" fill="#EE6F57"/>
<defs>
<linearGradient id="paint0_linear_36_4526" x1="661.966" y1="-52.1697" x2="-62.4526" y2="665.185" gradientUnits="userSpaceOnUse">
<stop stop-color="#E57403"/>
<stop offset="0.29" stop-color="#EF880F"/>
<stop offset="0.73" stop-color="#FBA11D"/>
<stop offset="1" stop-color="#FFAA22"/>
</linearGradient>
</defs>
</svg>
